<svg width="133" height="58" viewBox="0 0 133 58" fill="none" xmlns="http://www.w3.org/2000/svg">
<g filter="url(#filter0_d_1_13895)">
<path fill-rule="evenodd" clip-rule="evenodd" d="M3.26493 49.8391L3 50.0477V52.6634L3.26493 52.8504H23.356L23.621 52.6634V50.0477L23.356 49.8391L20.9055 49.7C19.5588 49.6768 18.8854 49.5609 18.8854 48.6568C18.8854 48.4481 18.9406 48.1699 19.051 47.8222C19.1614 47.4513 20.3756 45.3649 22.6937 41.5631L31.7674 26.7151L43.5235 7.48571H44.4176V52.8504H50.5507V3.13909C50.5507 3.13909 37.6841 3.23182 35.5426 3.13909C33.4011 3.04636 32.1317 3 31.7343 3L31.4694 3.24341V4.98206L31.7343 5.22547C35.8407 5.43411 38.3243 5.71229 39.1854 6.06002C40.0684 6.38456 40.51 6.91775 40.51 7.65957C40.51 8.05366 40.3665 8.50571 40.0795 9.01571C39.9641 9.2157 38.4039 11.5862 36.1139 15.0512C35.868 15.1914 33.77 15.3146 27.4955 15.1642C25.3541 15.0715 24.0846 15.0251 23.6872 15.0251L23.4223 15.2685V17.0072L23.6872 17.2506C27.7936 17.4592 30.2773 17.7374 31.1383 18.0851C32.0213 18.4097 32.4629 18.9429 32.4629 19.6847C32.4629 19.9262 32.409 20.3803 32.3012 20.8132C31.0856 22.6489 29.8002 24.5887 28.5014 26.5479L20.1694 26.4437C18.0279 26.351 16.7584 26.3046 16.3611 26.3046L16.0961 26.548V28.2867L16.3611 28.5301C20.4674 28.7387 22.9511 29.0169 23.8121 29.3646C24.6952 29.6892 25.1367 30.2224 25.1367 30.9642C25.1367 31.1429 25.1072 31.4382 25.0481 31.7552C23.9597 33.3959 22.8978 34.996 21.8974 36.5029C21.5112 36.8791 21.1869 37.1014 20.879 37.2798C20.4352 37.5369 17.2669 37.5311 14.7617 37.5265C13.6531 37.5245 12.6744 37.5227 12.1191 37.5441C11.1546 37.5031 9.67266 37.4459 9.27527 37.4459L9.01035 37.6893V39.428L9.27527 39.6714C13.3816 39.88 15.8653 40.1582 16.7263 40.5059C17.6094 40.8305 18.0509 41.3637 18.0509 42.1055C18.0509 42.162 18.048 42.2302 18.0421 42.307C16.7492 44.2519 15.7895 45.6933 15.342 46.3618C14.1499 48.1004 13.2337 48.8075 12.5934 49.1784C12.1477 49.4366 9.67772 49.8878 7 50C6.4888 50 5.66785 49.9524 4.91398 49.9087L4.91375 49.9087H4.91371H4.91364C4.19296 49.8669 3.53363 49.8287 3.26493 49.8391ZM65.0979 48.0007C65.125 47.6589 65.1386 47.3954 65.1386 47.2102C65.1386 46.0423 64.9012 45.0168 64.4265 44.1337C63.9653 43.2364 63.3142 42.5457 62.4732 42.0614C61.6458 41.5629 60.7031 41.3136 59.6451 41.3136C58.5735 41.3136 57.6105 41.5629 56.7559 42.0614C55.9014 42.5599 55.23 43.2578 54.7417 44.1551C54.2669 45.0382 54.0295 46.0352 54.0295 47.1461C54.0295 48.2713 54.2737 49.2826 54.762 50.1799C55.2639 51.063 55.9692 51.7537 56.878 52.2522C57.7868 52.7507 58.838 53 60.0317 53C60.9676 53 61.8086 52.8433 62.5546 52.53C63.3007 52.2166 63.9178 51.7537 64.4061 51.1413L63.0429 49.4962C62.2698 50.3223 61.2864 50.7354 60.0927 50.7354C59.1568 50.7354 58.3701 50.4932 57.7326 50.009C57.1086 49.5105 56.722 48.841 56.5728 48.0007H65.0979ZM57.5698 44.2192C58.1395 43.7065 58.8313 43.4501 59.6451 43.4501C60.4725 43.4501 61.1643 43.7065 61.7204 44.2192C62.2766 44.732 62.6089 45.4014 62.7174 46.2275H56.5525C56.6746 45.3871 57.0137 44.7177 57.5698 44.2192ZM69.8329 52.2522C70.7281 52.7507 71.7386 53 72.8645 53C73.9225 53 74.8516 52.7721 75.6519 52.3163C76.4658 51.8463 77.0829 51.184 77.5034 50.3294L75.5502 49.133C75.2382 49.66 74.8448 50.0588 74.3701 50.3294C73.9089 50.5858 73.4003 50.714 72.8441 50.714C71.8811 50.714 71.0876 50.3935 70.4636 49.7526C69.8532 49.0974 69.548 48.2286 69.548 47.1461C69.548 46.0637 69.86 45.202 70.484 44.561C71.1079 43.9059 71.8946 43.5783 72.8441 43.5783C73.4003 43.5783 73.9089 43.7136 74.3701 43.9842C74.8448 44.2406 75.2382 44.6323 75.5502 45.1592L77.5034 43.9628C77.0965 43.1082 76.4861 42.4531 75.6723 41.9973C74.872 41.5415 73.9361 41.3136 72.8645 41.3136C71.7251 41.3136 70.7078 41.5629 69.8125 42.0614C68.9309 42.5599 68.2391 43.2507 67.7372 44.1337C67.2353 45.0168 66.9844 46.0209 66.9844 47.1461C66.9844 48.2713 67.2353 49.2826 67.7372 50.1799C68.2391 51.063 68.9376 51.7537 69.8329 52.2522ZM89.7568 47.2102C89.7568 47.3954 89.7433 47.6589 89.7161 48.0007H81.191C81.3402 48.841 81.7268 49.5105 82.3508 50.009C82.9883 50.4932 83.775 50.7354 84.7109 50.7354C85.9046 50.7354 86.888 50.3223 87.6612 49.4962L89.0244 51.1413C88.536 51.7537 87.9189 52.2166 87.1728 52.53C86.4268 52.8433 85.5858 53 84.6499 53C83.4563 53 82.405 52.7507 81.4962 52.2522C80.5874 51.7537 79.8821 51.063 79.3802 50.1799C78.8919 49.2826 78.6478 48.2713 78.6478 47.1461C78.6478 46.0352 78.8851 45.0382 79.3599 44.1551C79.8482 43.2578 80.5196 42.5599 81.3742 42.0614C82.2287 41.5629 83.1918 41.3136 84.2633 41.3136C85.3213 41.3136 86.264 41.5629 87.0915 42.0614C87.9324 42.5457 88.5835 43.2364 89.0447 44.1337C89.5195 45.0168 89.7568 46.0423 89.7568 47.2102ZM84.2633 43.4501C83.4495 43.4501 82.7577 43.7065 82.188 44.2192C81.6319 44.7177 81.2928 45.3871 81.1707 46.2275H87.3356C87.2271 45.4014 86.8948 44.732 86.3386 44.2192C85.7825 43.7065 85.0907 43.4501 84.2633 43.4501ZM95.0818 41.4418H92.5385V52.8505H95.0818V48.3425H100.555V52.8505H103.098V41.4418H100.555V46.0779H95.0818V41.4418ZM111.024 48.2785H109.05V52.8505H106.507V41.4418H109.05V46.0565H111.085L114.299 41.4418H117.026L113.079 46.9325L117.29 52.8505H114.299L111.024 48.2785ZM126.597 42.5314C125.756 41.7196 124.535 41.3136 122.934 41.3136C122.039 41.3136 121.191 41.4347 120.391 41.6768C119.591 41.919 118.906 42.2679 118.336 42.7237L119.333 44.6679C119.74 44.3118 120.235 44.034 120.818 43.8346C121.415 43.6352 122.019 43.5355 122.629 43.5355C123.524 43.5355 124.196 43.7492 124.643 44.1765C125.105 44.6038 125.335 45.2162 125.335 46.0138V46.1847H122.527C120.967 46.1847 119.821 46.4981 119.089 47.1248C118.37 47.7372 118.01 48.5562 118.01 49.5817C118.01 50.2369 118.173 50.8279 118.499 51.3549C118.838 51.8677 119.313 52.2736 119.923 52.5727C120.533 52.8576 121.246 53 122.059 53C122.873 53 123.565 52.8718 124.135 52.6154C124.718 52.3448 125.166 51.9603 125.478 51.4618V52.8505H127.878V46.1634C127.878 44.5397 127.451 43.329 126.597 42.5314ZM124.277 50.6072C123.789 50.9063 123.226 51.0558 122.588 51.0558C121.937 51.0558 121.429 50.9134 121.062 50.6285C120.696 50.3437 120.513 49.9591 120.513 49.4749C120.513 48.4636 121.246 47.958 122.71 47.958H125.335V49.2826C125.132 49.8523 124.779 50.2938 124.277 50.6072Z" fill="#202020"/>
<path fill-rule="evenodd" clip-rule="evenodd" d="M127.153 3H86.4601L85.6123 3.89019V32.3762L86.4601 33.2663H127.153L128 32.3762V3.89019L127.153 3ZM120.839 27.7064V25.3268H111.781L117.181 19.6922C118.308 18.5252 119.073 17.4858 119.477 16.5741C119.88 15.6624 120.082 14.6959 120.082 13.6748C120.082 12.0337 119.536 10.739 118.442 9.79078C117.349 8.82434 115.877 8.34112 114.027 8.34112C112.647 8.34112 111.394 8.59641 110.267 9.10698C109.157 9.61755 108.257 10.3287 107.567 11.2404L109.283 12.8542C110.343 11.4684 111.848 10.7755 113.799 10.7755C115.011 10.7755 115.936 11.0581 116.575 11.6234C117.231 12.1704 117.559 12.9454 117.559 13.9483C117.559 14.623 117.408 15.2977 117.105 15.9724C116.802 16.6288 116.213 17.4129 115.339 18.3246L108.147 25.8465V27.7064H120.839ZM103.395 17.7502C102.218 16.7109 100.367 16.1912 97.8441 16.1912H95.8759L96.3554 10.9396H104.203V8.55994H94.2358L93.3022 18.5708H97.3142C99.2655 18.5708 100.645 18.8717 101.452 19.4734C102.26 20.0569 102.663 20.9231 102.663 22.0719C102.663 23.1295 102.293 23.9683 101.553 24.5883C100.83 25.19 99.8038 25.4909 98.4749 25.4909C97.4319 25.4909 96.4395 25.3085 95.4975 24.9438C94.5554 24.5609 93.7817 24.0595 93.1761 23.4395L92.0154 25.6003C92.7724 26.3297 93.7312 26.9041 94.8919 27.3235C96.0526 27.7246 97.2553 27.9252 98.5001 27.9252C99.9636 27.9252 101.192 27.6699 102.184 27.1594C103.193 26.6306 103.942 25.9194 104.43 25.0259C104.934 24.1142 105.187 23.093 105.187 21.9625C105.187 20.1755 104.59 18.7714 103.395 17.7502Z" fill="#F4F4F4"/>
</g>
<defs>
<filter id="filter0_d_1_13895" x="0" y="0" width="133" height="58" filterUnits="userSpaceOnUse" color-interpolation-filters="sRGB">
<feFlood flood-opacity="0" result="BackgroundImageFix"/>
<feColorMatrix in="SourceAlpha" type="matrix" values="0 0 0 0 0 0 0 0 0 0 0 0 0 0 0 0 0 0 127 0" result="hardAlpha"/>
<feOffset dx="1" dy="1"/>
<feGaussianBlur stdDeviation="2"/>
<feColorMatrix type="matrix" values="0 0 0 0 0 0 0 0 0 0 0 0 0 0 0 0 0 0 0.15 0"/>
<feBlend mode="normal" in2="BackgroundImageFix" result="effect1_dropShadow_1_13895"/>
<feBlend mode="normal" in="SourceGraphic" in2="effect1_dropShadow_1_13895" result="shape"/>
</filter>
</defs>
</svg>
