<svg width="60" height="60" viewBox="0 0 60 60" fill="none" xmlns="http://www.w3.org/2000/svg">
<g clip-path="url(#clip0_1_13833)">
<path fill-rule="evenodd" clip-rule="evenodd" d="M1 0H0V1V25C0 25.5523 0.447715 26 1 26C1.55228 26 2 25.5523 2 25V2H33V11.5V12.5H34H43.5V32H12H11V33V58H2V35C2 34.4477 1.55228 34 1 34C0.447715 34 0 34.4477 0 35V59V60H1H12H59H60V59V33V32H59H45.5V11.5V11.0858L45.2071 10.7929L34.7071 0.292893L34.4142 0H34H1ZM42.0858 10.5L35 3.41421V10.5H42.0858ZM58 34V58H13V34H44.5H58ZM7.5 11C6.94772 11 6.5 11.4477 6.5 12C6.5 12.5523 6.94772 13 7.5 13H12C12.5523 13 13 12.5523 13 12C13 11.4477 12.5523 11 12 11H7.5ZM19 11C18.4477 11 18 11.4477 18 12C18 12.5523 18.4477 13 19 13H25C25.5523 13 26 12.5523 26 12C26 11.4477 25.5523 11 25 11H19ZM7.5 18C6.94772 18 6.5 18.4477 6.5 19C6.5 19.5523 6.94772 20 7.5 20H25C25.5523 20 26 19.5523 26 19C26 18.4477 25.5523 18 25 18H7.5ZM32 18C31.4477 18 31 18.4477 31 19C31 19.5523 31.4477 20 32 20H37C37.5523 20 38 19.5523 38 19C38 18.4477 37.5523 18 37 18H32ZM7.5 25C6.94772 25 6.5 25.4477 6.5 26C6.5 26.5523 6.94772 27 7.5 27H14C14.5523 27 15 26.5523 15 26C15 25.4477 14.5523 25 14 25H7.5ZM21 25C20.4477 25 20 25.4477 20 26C20 26.5523 20.4477 27 21 27H37C37.5523 27 38 26.5523 38 26C38 25.4477 37.5523 25 37 25H21ZM22 37H21V38C21 39.2634 20.5887 40.089 19.9742 40.6157C19.3361 41.1627 18.3466 41.5 17 41.5H16V42.5V49.5V50.5H17C18.3466 50.5 19.3361 50.8373 19.9742 51.3843C20.5887 51.911 21 52.7366 21 54V55H22H49H50V54C50 52.7366 50.4113 51.911 51.0258 51.3843C51.6639 50.8373 52.6534 50.5 54 50.5H55V49.5V42.5V41.5H54C52.6534 41.5 51.6639 41.1627 51.0258 40.6157C50.4113 40.089 50 39.2634 50 38V37H49H22ZM21.2758 42.1343C22.185 41.355 22.7436 40.2864 22.9302 39H48.0698C48.2564 40.2864 48.815 41.355 49.7242 42.1343C50.6074 42.8913 51.742 43.3074 53 43.4465V48.5535C51.742 48.6926 50.6074 49.1087 49.7242 49.8657C48.815 50.645 48.2564 51.7136 48.0698 53H22.9302C22.7436 51.7136 22.185 50.645 21.2758 49.8657C20.3926 49.1087 19.258 48.6926 18 48.5535V43.4465C19.258 43.3074 20.3926 42.8913 21.2758 42.1343ZM33 46C33 44.6193 34.1193 43.5 35.5 43.5C36.8807 43.5 38 44.6193 38 46C38 47.3807 36.8807 48.5 35.5 48.5C34.1193 48.5 33 47.3807 33 46ZM35.5 41.5C33.0147 41.5 31 43.5147 31 46C31 48.4853 33.0147 50.5 35.5 50.5C37.9853 50.5 40 48.4853 40 46C40 43.5147 37.9853 41.5 35.5 41.5ZM1.7069 30.707C1.521 30.893 1.263 31 1 31C0.737 31 0.479 30.893 0.293 30.707C0.1069 30.521 0 30.263 0 30C0 29.736 0.107 29.479 0.293 29.293C0.479 29.106 0.737 29 1 29C1.263 29 1.521 29.106 1.7069 29.293C1.893 29.479 2 29.736 2 30C2 30.263 1.8929 30.521 1.7069 30.707Z" fill="#202020"/>
</g>
<defs>
<clipPath id="clip0_1_13833">
<rect width="60" height="60" fill="white"/>
</clipPath>
</defs>
</svg>
