<svg width="60" height="60" viewBox="0 0 60 60" fill="none" xmlns="http://www.w3.org/2000/svg">
<path fill-rule="evenodd" clip-rule="evenodd" d="M19.0003 1C17.3435 1 16.0003 2.34314 16.0003 3.99999L16.0003 4.24651C8.72794 6.41968 4.77376 10.2795 2.76784 15.4307C0.741951 20.6333 0.752205 27.0535 1.00055 34.0178L1.00039 36.9999C1.00039 38.6569 2.34353 40 4.00039 40H5.00039V49C5.00039 52.0681 7.46159 54.5766 10.8253 56.2584C14.2487 57.9701 18.9082 59 24.0004 59C30.6029 59 36.54 57.2647 39.9551 54.5H40.0589C40.4893 54.5 40.8714 54.7754 41.0075 55.1838L41.5959 56.9487C42.0042 58.1737 43.1506 59 44.4419 59H56.0004C57.6572 59 59.0004 57.6569 59.0004 56C59.0004 54.3431 57.6572 53 56.0004 53H48.5004C48.2242 53 48.0004 52.7761 48.0004 52.5C48.0004 52.2239 48.2242 52 48.5004 52H52.2504C54.0453 52 55.5004 50.5449 55.5004 48.75C55.5004 46.9551 54.0453 45.5 52.2504 45.5H43.6982C43.1459 45.5 42.6982 45.0523 42.6982 44.5V41.1925L46.8429 37.0477L47.9567 38.1987L48.6636 38.9292L49.3824 38.2104L50.3154 37.2774C52.268 35.3248 52.268 32.1591 50.3155 30.2064L46.8879 26.7787L54.2075 19.4591L57.3454 16.3211C59.0503 14.6162 59.0503 11.8521 57.3454 10.1472C55.6406 8.44229 52.8764 8.44229 51.1715 10.1472L48.0258 13.2929L44.857 16.4617C43.0817 13.0821 41.2634 10.3734 39.0969 8.33515C36.8392 6.21129 34.2383 4.84768 31.0003 4.17071V4C31.0003 2.34315 29.6572 1 28.0003 1H26.0003H21.0003H19.0003ZM4.63152 16.1565C6.33449 11.7832 9.61936 8.37664 16.0187 6.3339C16.1848 7.83361 17.4563 9 19.0003 9H21.0003H26.0003H28.0003C29.5842 9 30.8814 7.77258 30.9926 6.21704C33.6973 6.84701 35.8428 8.01984 37.7265 9.79186C39.7746 11.7187 41.5487 14.3869 43.3736 17.9451L40.714 20.6047L38.2972 18.1882C36.3446 16.2356 33.1789 16.2357 31.2263 18.1883L30.2933 19.1213L29.574 19.8405L30.2651 20.5084C28.3046 20.1635 26.2201 20 24.0004 20C18.9082 20 14.2487 21.0299 10.8253 22.7416C7.46159 24.4234 5.00039 26.9319 5.00039 30V31H4.00039C3.6187 31 3.25368 31.0713 2.9179 31.2012C2.78889 25.3502 3.02435 20.2838 4.63152 16.1565ZM45.4737 25.3644L42.1282 22.0189L45.3001 18.847L48.7341 15.4131L52.085 18.7531L45.4737 25.3644ZM53.4992 17.3389L50.1483 13.9988L52.5857 11.5614C53.5096 10.6376 55.0074 10.6376 55.9312 11.5614C56.8551 12.4852 56.8551 13.983 55.9312 14.9069L53.4992 17.3389ZM24.0004 22C26.3131 22 28.4405 22.1857 30.4058 22.5684L29.0633 23.9109C27.7098 23.6677 25.531 23.5 24.0004 23.5C18.8891 23.5 14.5776 24.6554 11.5088 26.4927C9.4809 27.7068 7.93388 29.2643 7.12587 31.022C7.04208 30.6839 7.00039 30.3427 7.00039 30C7.00039 28.0975 8.56862 26.106 11.7197 24.5305C14.8109 22.9848 19.1514 22 24.0004 22ZM24.0004 25.5C24.9876 25.5 26.227 25.5748 27.2881 25.6861L21.7906 31.1836L21.0835 31.8907L21.7906 32.5978L24.5613 35.3686L27.2995 38.1067L30.0376 40.8448L33.0087 43.816L35.8346 46.6418L36.5417 47.349L37.2488 46.6418L40.6982 43.1925V44.5C40.6982 46.1569 42.0413 47.5 43.6982 47.5H52.2504C52.9407 47.5 53.5004 48.0596 53.5004 48.75C53.5004 49.4404 52.9407 50 52.2504 50H48.5004C47.1197 50 46.0004 51.1193 46.0004 52.5C46.0004 53.8807 47.1197 55 48.5004 55H56.0004C56.5527 55 57.0004 55.4477 57.0004 56C57.0004 56.5523 56.5527 57 56.0004 57H44.4419C44.0115 57 43.6293 56.7246 43.4932 56.3162L42.9049 54.5513C42.4966 53.3263 41.3502 52.5 40.0589 52.5H39.5975H39.5862H35.0004C33.3435 52.5 32.0004 51.1569 32.0004 49.5V47C32.0004 45.3431 30.6572 44 29.0004 44C27.3435 44 26.0004 45.3431 26.0004 47V48.5C26.0004 49.0523 25.5527 49.5 25.0004 49.5C24.4481 49.5 24.0004 49.0523 24.0004 48.5V43V41C24.0004 39.3292 22.6535 38.0359 21.0576 37.946C15.1496 37.6129 10.6987 35.7857 8.51589 33.4444C8.67083 31.6338 9.98849 29.734 12.5361 28.2087C15.2321 26.5946 19.1705 25.5 24.0004 25.5ZM35.0004 54.5H36.2196C33.1522 56.018 28.848 57 24.0004 57C19.1514 57 14.8109 56.0152 11.7197 54.4695C8.56862 52.894 7.00039 50.9025 7.00039 49V39.765C7.34702 40.0074 7.71842 40.2394 8.10834 40.4606C9.32968 41.1534 10.794 41.7747 12.3918 42.2954C15.2912 43.2402 18.6943 43.8748 22.0004 43.9834V48.5C22.0004 50.1569 23.3435 51.5 25.0004 51.5C26.6572 51.5 28.0004 50.1569 28.0004 48.5V47C28.0004 46.4477 28.4481 46 29.0004 46C29.5527 46 30.0004 46.4477 30.0004 47V49.5C30.0004 52.2614 32.239 54.5 35.0004 54.5ZM9.09514 38.721C8.15603 38.1883 7.45498 37.6492 7.00039 37.1419V34.7513C9.67279 37.6658 14.7632 39.5943 20.945 39.9428C21.5548 39.9772 22.0004 40.4617 22.0004 41V41.9823C18.9148 41.874 15.7239 41.2777 13.0115 40.3938C11.5097 39.9044 10.1742 39.3331 9.09514 38.721ZM4.00039 33H5.00039V37.5V38H4.00039C3.4481 38 3.00039 37.5523 3.00039 37.0001L3.00055 34.0001C3.00055 33.4476 3.44821 33 4.00039 33ZM30.0955 25.7071L32.8106 22.992L45.4404 35.6218L40.9911 40.0712L36.5417 44.5205L35.1333 43.1121L42.1516 36.1575C42.544 35.7687 42.5468 35.1356 42.1581 34.7433C41.7694 34.351 41.1362 34.3481 40.7439 34.7368L33.7191 41.6979L32.1621 40.141L39.1805 33.1863C39.5728 32.7976 39.5757 32.1644 39.1869 31.7721C38.7982 31.3798 38.165 31.3769 37.7727 31.7657L30.7479 38.7267L29.424 37.4028L36.4424 30.4482C36.8347 30.0595 36.8376 29.4263 36.4488 29.034C36.0601 28.6417 35.4269 28.6388 35.0346 29.0276L28.0098 35.9886L26.6859 34.6647L33.7042 27.7101C34.0965 27.3213 34.0994 26.6882 33.7107 26.2959C33.322 25.9036 32.6888 25.9007 32.2965 26.2894L25.2717 33.2505L23.9119 31.8907L30.0955 25.7071ZM18.0003 4C18.0003 3.44771 18.448 3 19.0003 3H20.0003V7H19.0003C18.448 7 18.0003 6.55229 18.0003 6L18.0003 5L18.0003 4ZM22.0003 7V3H25.0003V7H22.0003ZM27.0003 7V3H28.0003C28.5526 3 29.0003 3.44772 29.0003 4V5V6C29.0003 6.55228 28.5526 7 28.0003 7H27.0003ZM32.6405 19.6025C33.812 18.4309 35.7115 18.4309 36.8831 19.6024L40.0069 22.7261L44.7666 27.4858L48.9012 31.6206C50.0728 32.7922 50.0727 34.6916 48.9012 35.8632L48.687 36.0774L47.5732 34.9264L47.5675 34.9205L47.5617 34.9147L33.5177 20.8707L33.5117 20.8647L33.5055 20.8587L32.4268 19.8162L32.6405 19.6025ZM19.2498 29.4684C19.7846 29.3307 20.1065 28.7854 19.9688 28.2506C19.8311 27.7158 19.2858 27.3939 18.751 27.5316C15.6267 28.3362 13.4852 29.101 11.2933 31.2929C10.9028 31.6834 10.9028 32.3166 11.2933 32.7071C11.6838 33.0976 12.317 33.0976 12.7075 32.7071C14.5156 30.899 16.2327 30.2454 19.2498 29.4684ZM10.5004 46C10.5004 45.4477 10.0527 45 9.50039 45C8.9481 45 8.50039 45.4477 8.50039 46V47.5C8.50039 50.7966 11.3063 52.8069 14.8748 53.9522C15.4007 54.1209 15.9638 53.8315 16.1325 53.3056C16.3013 52.7797 16.0118 52.2166 15.486 52.0478C12.0619 50.9489 10.5004 49.3783 10.5004 47.5V46ZM23.4142 28.5C23.2283 28.686 22.9703 28.793 22.7073 28.793C22.4443 28.793 22.1863 28.686 22.0003 28.5C21.8142 28.314 21.7073 28.056 21.7073 27.793C21.7073 27.529 21.8143 27.272 22.0003 27.086C22.1863 26.899 22.4443 26.793 22.7073 26.793C22.9703 26.793 23.2283 26.899 23.4142 27.086C23.6003 27.272 23.7073 27.529 23.7073 27.793C23.7073 28.056 23.6002 28.314 23.4142 28.5ZM19.7073 54.707C19.5214 54.893 19.2634 55 19.0004 55C18.7374 55 18.4794 54.893 18.2934 54.707C18.1073 54.521 18.0004 54.263 18.0004 54C18.0004 53.736 18.1074 53.479 18.2934 53.293C18.4794 53.106 18.7374 53 19.0004 53C19.2634 53 19.5214 53.106 19.7073 53.293C19.8934 53.479 20.0004 53.736 20.0004 54C20.0004 54.263 19.8933 54.521 19.7073 54.707Z" fill="#202020"/>
</svg>
