<svg width="60" height="60" viewBox="0 0 60 60" fill="none" xmlns="http://www.w3.org/2000/svg">
<g clip-path="url(#clip0_1_13480)">
<path fill-rule="evenodd" clip-rule="evenodd" d="M50.5949 1.18044C49.4389 0.0244626 47.5702 0.00683776 46.3926 1.1408L44.4982 2.96511L41.19 6.15077L35.116 11.9998H7.5V3.49976V2.49976H6.5C2.91015 2.49976 0 5.40991 0 8.99976V46.4998C0 50.0896 2.91015 52.9998 6.5 52.9998H33.5858L28.2929 58.2927L26.5858 59.9998H29H59H60V58.9998V52.9998V48.4998V44.2498V39.9998V28.9998V26.5856L58.2929 28.2927L56 30.5855V12.9998V11.9998H55H48.4142L50.9571 9.45687L52.7929 7.62109C53.9645 6.44951 53.9645 4.55002 52.7929 3.37844L50.5949 1.18044ZM7.5 13.9998H33.0391L28.8064 18.0757C28.4085 18.4588 28.3966 19.0919 28.7797 19.4897C29.1628 19.8875 29.7958 19.8995 30.1936 19.5164L36.2129 13.7201L41.8696 8.2729L45.5866 11.9989L45.2929 12.2927L27.4988 30.0867L23.4289 26.0306L27.0302 22.5626C27.428 22.1796 27.44 21.5465 27.0569 21.1487C26.6738 20.7509 26.0408 20.7389 25.6429 21.122L21.3064 25.298L21.148 25.4504L21.0682 25.6552L17.8164 33.9998H16C15.4477 33.9998 15 34.4475 15 34.9998C15 35.552 15.4477 35.9998 16 35.9998H18.5H40C40.5523 35.9998 41 35.552 41 34.9998C41 34.4475 40.5523 33.9998 40 33.9998H23.8305L27.8624 32.4318L28.0584 32.3556L28.2071 32.2069L46.4142 13.9998H54V32.5855L35.5858 50.9998H6.5C4.01472 50.9998 2 48.985 2 46.4998C2 44.0145 4.01472 41.9998 6.5 41.9998H7.5V40.9998V34.4998C7.5 33.9475 7.05228 33.4998 6.5 33.4998C5.94772 33.4998 5.5 33.9475 5.5 34.4998V40.0762C4.15187 40.2844 2.94049 40.9068 2 41.8093V8.99976C2 6.85818 3.49601 5.066 5.5 4.61127V12.9998V27.4586C5.5 28.0109 5.94772 28.4586 6.5 28.4586C7.05228 28.4586 7.5 28.0109 7.5 27.4586V13.9998ZM47.0008 10.5847L43.3104 6.8854L45.1782 5.08684L48.8362 8.74933L47.0008 10.5847ZM50.2504 7.33512L46.619 3.69932L47.7799 2.58144C48.1725 2.20345 48.7953 2.20933 49.1807 2.59465L51.3787 4.79266C51.7692 5.18318 51.7692 5.81635 51.3787 6.20687L50.2504 7.33512ZM22.3767 27.8056L25.7066 31.1242L20.2577 33.2432L22.3767 27.8056ZM55.7071 33.7069L58 31.414V38.9998H57C56.4477 38.9998 56 39.4475 56 39.9998C56 40.552 56.4477 40.9998 57 40.9998H58V43.2498H57C56.4477 43.2498 56 43.6975 56 44.2498C56 44.802 56.4477 45.2498 57 45.2498H58V47.4998H57C56.4477 47.4998 56 47.9475 56 48.4998C56 49.052 56.4477 49.4998 57 49.4998H58V51.9998H57C56.4477 51.9998 56 52.4475 56 52.9998C56 53.552 56.4477 53.9998 57 53.9998H58V57.9998H31.4142L36.7071 52.7069L55.7071 33.7069ZM53.5 43.4998V41.0855L51.7929 42.7927L42.7929 51.7927L41.0858 53.4998H43.5H52.5H53.5V52.4998V43.4998ZM51.5 51.4998H45.9142L51.5 45.914V51.4998ZM7.2069 31.7068C7.021 31.8928 6.763 31.9998 6.5 31.9998C6.237 31.9998 5.979 31.8928 5.793 31.7068C5.6069 31.5208 5.5 31.2628 5.5 30.9998C5.5 30.7358 5.607 30.4788 5.793 30.2928C5.979 30.1058 6.237 29.9998 6.5 29.9998C6.763 29.9998 7.021 30.1058 7.2069 30.2928C7.393 30.4788 7.5 30.7358 7.5 30.9998C7.5 31.2628 7.3929 31.5208 7.2069 31.7068Z" fill="#202020"/>
</g>
<defs>
<clipPath id="clip0_1_13480">
<rect width="60" height="60" fill="white"/>
</clipPath>
</defs>
</svg>
