<svg width="289" height="252" viewBox="0 0 289 252" fill="none" xmlns="http://www.w3.org/2000/svg">
<path d="M1.6084 15.5482V48.2163L8.48503 50.7953L165.788 244.225L185.558 250.242M1.6084 15.5482L102.179 0.933594L121.09 7.81108M1.6084 15.5482L18.8 21.566M185.558 250.242L287.848 235.628V214.136M185.558 250.242V227.891M287.848 214.136L268.937 208.118M287.848 214.136L185.558 227.891M268.937 208.118V190.924M268.937 208.118L168.367 221.013M268.937 190.924L251.746 184.906M268.937 190.924L168.367 204.679M251.746 184.906V168.572M251.746 184.906L148.596 199.521M251.746 168.572L233.695 162.554M251.746 168.572L148.596 182.327M233.695 162.554V146.22M233.695 162.554L130.545 176.309M233.695 146.22L214.784 139.649M233.695 146.22L130.545 159.116M214.784 139.649V123.009M214.784 139.649L112.494 153.098M214.784 123.009L195.014 115.905M214.784 123.009L112.494 135.904M195.014 115.905V98.9377M195.014 115.905L92.7237 129.027M195.014 98.9377L177.822 93.4118M195.014 98.9377L92.7237 112.693M177.822 93.4118V76.5859M177.822 93.4118L73.2272 107.535M177.822 76.5859L158.052 70.5681M177.822 76.5859L73.2272 90.3409M158.052 70.5681V54.048M158.052 70.5681L56.3764 84.3231M158.052 54.048L139.141 47.3566M158.052 54.048L56.6214 67.1294M139.141 47.3566V31.0226M139.141 47.3566L37.7107 61.1116M139.141 31.0226L121.09 24.1451M139.141 31.0226L37.7107 43.9179M121.09 24.1451V7.81108M121.09 24.1451L18.8 37.9001M121.09 7.81108L18.8 21.566M18.8 21.566V37.9001M18.8 37.9001L37.7107 43.9179M37.7107 43.9179V61.1116M37.7107 61.1116L56.6214 67.1294M56.6214 67.1294L56.3764 84.3231M56.3764 84.3231L73.2272 90.3409M73.2272 90.3409V107.535M73.2272 107.535L92.7237 112.693M92.7237 112.693V129.027M92.7237 129.027L112.494 135.904M112.494 135.904V153.098M112.494 153.098L130.545 159.116M130.545 159.116V176.309M130.545 176.309L148.596 182.327M148.596 182.327V199.521M148.596 199.521L168.367 204.679M168.367 204.679V221.013M168.367 221.013L185.558 227.891" stroke="#202020" stroke-width="1.5"/>
</svg>
