<svg width="162" height="202" viewBox="0 0 162 202" fill="none" xmlns="http://www.w3.org/2000/svg">
<g filter="url(#filter0_d_17_18)">
<path d="M136.846 121.045C150.897 117.391 148.087 99.1229 133.098 99.1229H89.0694M136.846 121.045H104.058M136.846 121.045C140.593 127.439 140.593 138.4 131.225 143.881M81.5752 99.1229H89.0694M97.5005 165.803H123.73M123.73 165.803C134.972 163.063 135.909 149.361 131.225 143.881M123.73 165.803C124.043 170.98 122.789 182.702 108.742 184.985C97.5005 186.812 58.1555 186.812 45.0406 179.505M131.225 143.881H101.248M45.0406 179.505C41.7758 177.686 40.3566 172.197 41.2935 167.63M45.0406 179.505H34.7357C24.3883 179.505 16 171.326 16 161.236V122.872C16 112.783 24.3883 104.603 34.7357 104.603L49.123 104.603M44.1038 112.824C45.4854 110.322 47.2214 107.515 49.123 104.603M89.0694 99.1229C96.5637 85.422 96.0058 69.1746 91.8798 57.1048C86.2591 40.6626 70.3337 37.9235 72.2073 51.6246C73.7033 62.5648 72.2073 69.8925 67.5234 78.1134C65.6924 81.3271 56.2466 93.6948 49.123 104.603M82.5117 32.4418V16M54.4082 58.0179H37.546M124.667 58.0179H107.805M61.9024 39.7493L48.7875 30.6149M114.362 30.6149L101.247 39.7493" stroke="#F98C37" stroke-width="2" stroke-linecap="round"/>
</g>
<defs>
<filter id="filter0_d_17_18" x="0" y="0" width="162" height="202" filterUnits="userSpaceOnUse" color-interpolation-filters="sRGB">
<feFlood flood-opacity="0" result="BackgroundImageFix"/>
<feColorMatrix in="SourceAlpha" type="matrix" values="0 0 0 0 0 0 0 0 0 0 0 0 0 0 0 0 0 0 127 0" result="hardAlpha"/>
<feOffset/>
<feGaussianBlur stdDeviation="7.5"/>
<feColorMatrix type="matrix" values="0 0 0 0 0.984314 0 0 0 0 0.894118 0 0 0 0 0.2 0 0 0 0.3 0"/>
<feBlend mode="normal" in2="BackgroundImageFix" result="effect1_dropShadow_17_18"/>
<feBlend mode="normal" in="SourceGraphic" in2="effect1_dropShadow_17_18" result="shape"/>
</filter>
</defs>
</svg>
