<svg width="60" height="60" viewBox="0 0 60 60" fill="none" xmlns="http://www.w3.org/2000/svg">
<path fill-rule="evenodd" clip-rule="evenodd" d="M50.9249 3.9236C52.0965 2.75203 53.996 2.75203 55.1675 3.9236L56.0039 4.76001C57.1755 5.93158 57.1755 7.83107 56.0039 9.00265L43.4993 21.5073L38.4149 16.4335L50.9249 3.9236ZM37.0007 17.8478L42.0851 22.9215L41.1914 23.8152C40.8026 24.204 40.1729 24.206 39.7817 23.8197L39.1352 23.1814L39.1307 23.1769L36.5049 20.5511L36.4998 20.546L36.106 20.1464C35.7203 19.7551 35.7226 19.1259 36.1111 18.7374L37.0007 17.8478ZM35.7927 22.6673L37.0139 23.8885L32.2929 28.6095L31.2461 29.6563C30.9089 29.9936 30.3621 29.9936 30.0249 29.6563C29.6877 29.3191 29.6877 28.7724 30.0249 28.4352L30.8923 27.5678L35.7927 22.6673ZM34.6969 17.3231C33.6333 18.3868 33.5346 20.0517 34.4047 21.2269L30.2025 25.4291C26.3667 21.9514 20.2585 22.982 17.7897 27.567L9.0603 43.7787C8.29977 45.1912 8.4566 46.9213 9.45871 48.1739L10.5196 49.5H2H1V50.5V57.9997V58.9997H2H58H59V57.9997V50.5V43.5V36V27.9997V26.9972L57.9975 26.9997L41.4975 27.0411L40.5 27.0436V28.0411V35.034L36.915 35.0076C36.8669 32.995 36.0653 30.9802 34.4411 29.4299L34.375 29.3558L38.4333 25.2975C39.6104 26.4012 41.4579 26.3771 42.6056 25.2294L44.2071 23.6279L57.4181 10.4169C59.3708 8.46424 59.3708 5.29842 57.4181 3.34579L56.5817 2.50939C54.6291 0.55677 51.4633 0.556763 49.5107 2.50939L36.2929 15.7272L34.6969 17.3231ZM19.5506 28.5152C21.3864 25.1059 25.9052 24.3169 28.7861 26.8455L28.6107 27.0209C27.4924 28.1392 27.4924 29.9523 28.6107 31.0706C29.7289 32.1888 31.542 32.1888 32.6603 31.0706L32.9585 30.7724L32.9762 30.7922L33.0047 30.8241L33.0358 30.8535C34.3913 32.1337 34.9925 33.8424 34.9094 35.5069L34.8768 35.9018C34.8038 36.5333 34.6319 37.1529 34.365 37.7343C33.8802 38.6919 33.0953 39.4777 32.1504 40.1566C31.8234 40.3916 31.4872 40.6074 31.1473 40.8082L27.5526 42.6056L18.5528 47.1055L18 47.3819L14.7221 49.0208C13.8786 49.4426 12.855 49.2178 12.2659 48.4814L11.0204 46.9245C10.5194 46.2982 10.441 45.4332 10.8212 44.7269L19.5506 28.5152ZM57 49.5H20V48.6179L28.2358 44.5H57V49.5ZM57 42.5H32.2358L32.4938 42.371C34.204 41.5159 35.4424 40.1652 36.1666 38.6057C36.4121 38.1155 36.6057 37.5837 36.7313 37.0064L41.4926 37.0414V37.0414L41.5025 37.0414L57 37.0025V42.5ZM57 29.0022V35.0025L42.5 35.0389V29.0386L57 29.0022ZM19 51.5H57V56.9997H3V51.5H19ZM25.0166 28.6408C25.5433 28.4746 25.8355 27.9128 25.6692 27.3862C25.503 26.8595 24.9412 26.5673 24.4146 26.7336C22.5218 27.3311 20.83 28.6352 19.7897 30.5672L14.9657 39.526C14.7039 40.0122 14.8858 40.6187 15.3721 40.8805C15.8584 41.1424 16.4648 40.9604 16.7267 40.4742L21.5506 31.5154C22.3328 30.0628 23.5969 29.089 25.0166 28.6408ZM14.9139 44C14.728 44.186 14.47 44.293 14.207 44.293C13.944 44.293 13.686 44.186 13.5 44C13.3139 43.814 13.207 43.556 13.207 43.293C13.207 43.029 13.314 42.772 13.5 42.586C13.686 42.399 13.944 42.293 14.207 42.293C14.47 42.293 14.728 42.399 14.9139 42.586C15.1 42.772 15.207 43.029 15.207 43.293C15.207 43.556 15.0999 43.814 14.9139 44Z" fill="#202020"/>
</svg>
