<svg width="60" height="60" viewBox="0 0 60 60" fill="none" xmlns="http://www.w3.org/2000/svg">
<g clip-path="url(#clip0_1_13842)">
<path fill-rule="evenodd" clip-rule="evenodd" d="M25.6239 0.834903C26.5793 0.209466 27.8037 0 29 0H31C32.1963 0 33.4207 0.209466 34.3761 0.834903C35.2103 1.38095 35.7659 2.19749 35.9408 3.25564C40.7301 4.95083 43.8852 9.01634 44.4335 14.1259C45.9133 14.5344 47 15.8903 47 17.5C47 18.6288 46.4656 19.6328 45.6361 20.2728C46.4774 21.0904 47 22.2342 47 23.5C47 25.9853 44.9853 28 42.5 28H41.8091C41.1096 31.3135 39.7937 34.0227 37.5 35.7901V38.5002H41.5C43.5814 38.5002 45.3575 38.8362 46.868 39.434C50.5909 40.9074 52.501 43.8822 53.4698 46.7729C54.4328 49.6461 54.5 52.5242 54.5 54.0003V59.0003V60.0003H53.5H46.5H41.5H30H18.5H13.5H6.5H5.5V59.0003V54.0003C5.5 52.5242 5.56715 49.6461 6.53016 46.7729C7.49904 43.8822 9.4091 40.9074 13.132 39.434C14.6425 38.8362 16.4186 38.5002 18.5 38.5002H22.5V35.7934C20.2105 34.0651 18.4727 31.395 17.698 27.9999L16.5001 28H16.5C14.0147 28 12 25.9853 12 23.5C12 22.2342 12.5226 21.0904 13.3639 20.2728C12.5344 19.6328 12 18.6288 12 17.5C12 15.8879 13.09 14.5303 14.5732 14.124C15.2141 8.9185 19.2956 4.91517 24.0594 3.25397C24.2347 2.19663 24.7902 1.38067 25.6239 0.834903ZM24 5.4144C20.2329 6.96332 17.2485 10.1303 16.6119 14H42.4039C41.8731 10.0625 39.5344 6.94941 36 5.42573V11C36 11.5523 35.5523 12 35 12C34.4477 12 34 11.5523 34 11V4C34 3.21538 33.7081 2.78802 33.2807 2.50824C32.7884 2.18597 32.0128 2 31 2H29C27.9872 2 27.2116 2.18597 26.7193 2.50824C26.2919 2.78802 26 3.21538 26 4V11C26 11.5523 25.5523 12 25 12C24.4477 12 24 11.5523 24 11V5.4144ZM16.5 21C15.1193 21 14 22.1193 14 23.5C14 24.8807 15.1192 25.9999 16.4999 26H16.5L17.3498 25.9999C17.1422 24.4513 17.0359 22.779 17.0078 21H16.5ZM19.008 21C19.0433 23.1533 19.1967 25.1007 19.5007 26.8262C20.1243 30.3644 21.8638 32.9525 24.064 34.4551C25.5018 35.437 27.4199 36.0002 30 36.0002C32.58 36.0002 34.4982 35.437 35.936 34.455C38.0658 33.0005 39.3565 30.4734 39.9992 26.8264C40.3033 25.1009 40.4567 23.1534 40.492 21H19.008ZM42.4922 21C42.4641 22.7791 42.3578 24.4513 42.1502 26H42.5C43.8807 26 45 24.8807 45 23.5C45 22.1193 43.8807 21 42.5 21H42.4922ZM24.5 36.973V39.1076L30 45.0306L35.5 39.1076V36.9729C33.9439 37.6585 32.116 38.0002 30 38.0002C27.884 38.0002 26.0561 37.6586 24.5 36.973ZM36.9361 40.5002L31 46.8929V58.0003H40.5V55C40.5 54.4477 40.9477 54 41.5 54C42.0523 54 42.5 54.4477 42.5 55V58.0003H45.5V41.0682C44.6281 40.7897 43.6342 40.6005 42.5 40.5304V48C42.5 48.5523 42.0523 49 41.5 49C40.9477 49 40.5 48.5523 40.5 48V40.5002H36.9361ZM47.5 41.9718V58.0003H52.5V54.0003C52.5 52.5716 52.4294 49.9621 51.5735 47.4085C50.8632 45.2892 49.636 43.271 47.5 41.9718ZM29 58.0003V46.8929L23.0639 40.5002H19.5V48C19.5 48.5523 19.0523 49 18.5 49C17.9477 49 17.5 48.5523 17.5 48V40.5304C16.3658 40.6005 15.3719 40.7897 14.5 41.0682V58.0003H17.5V55C17.5 54.4477 17.9477 54 18.5 54C19.0523 54 19.5 54.4477 19.5 55V58.0003H29ZM12.5 58.0003V41.9718C10.364 43.271 9.13683 45.2892 8.42647 47.4085C7.5706 49.9621 7.5 52.5716 7.5 54.0003V58.0003H12.5ZM42.5 19H43.5C44.3284 19 45 18.3284 45 17.5C45 16.6716 44.3284 16 43.5 16H15.5C14.6716 16 14 16.6716 14 17.5C14 18.3284 14.6716 19 15.5 19H16.5H18H41.5H42.5ZM18.5 52.5C18.763 52.5 19.021 52.393 19.2069 52.207C19.3929 52.021 19.5 51.763 19.5 51.5C19.5 51.236 19.393 50.979 19.2069 50.793C19.021 50.606 18.763 50.5 18.5 50.5C18.237 50.5 17.979 50.606 17.793 50.793C17.607 50.979 17.5 51.236 17.5 51.5C17.5 51.763 17.6069 52.021 17.793 52.207C17.979 52.393 18.237 52.5 18.5 52.5ZM42.2069 52.207C42.021 52.393 41.763 52.5 41.5 52.5C41.237 52.5 40.979 52.393 40.793 52.207C40.6069 52.021 40.5 51.763 40.5 51.5C40.5 51.236 40.607 50.979 40.793 50.793C40.979 50.606 41.237 50.5 41.5 50.5C41.763 50.5 42.021 50.606 42.2069 50.793C42.393 50.979 42.5 51.236 42.5 51.5C42.5 51.763 42.3929 52.021 42.2069 52.207Z" fill="#202020"/>
</g>
<defs>
<clipPath id="clip0_1_13842">
<rect width="60" height="60" fill="white"/>
</clipPath>
</defs>
</svg>
